<svg width="72" height="72" viewBox="0 0 72 72" fill="none" xmlns="http://www.w3.org/2000/svg">
<rect x="1" y="1" width="70" height="70" rx="10" fill="white" stroke="#008444"/>
<path d="M29 31.5V28.5C29 26.0156 30.9688 24 33.5 24C35.9844 24 38 26.0156 38 28.5V31.5H41C42.6406 31.5 44 32.8594 44 34.5H34.25C32.1406 34.5 30.5 36.1875 30.5 38.25V45.75C30.5 46.0312 30.5 46.2656 30.5469 46.5H26C24.3125 46.5 23 45.1875 23 43.5V34.5C23 32.8594 24.3125 31.5 26 31.5H29ZM31.25 31.5H35.75V28.5C35.75 27.2812 34.7188 26.25 33.5 26.25C32.2344 26.25 31.25 27.2812 31.25 28.5V31.5ZM47 36C48.6406 36 50 37.3594 50 39V45C50 46.6875 48.6406 48 47 48H35C33.3125 48 32 46.6875 32 45V39C32 37.3594 33.3125 36 35 36H47ZM38 39.75C38 39.375 37.625 39 37.25 39C36.8281 39 36.5 39.375 36.5 39.75V40.5C36.5 42.9844 38.4688 45 41 45C43.4844 45 45.5 42.9844 45.5 40.5V39.75C45.5 39.375 45.125 39 44.75 39C44.3281 39 44 39.375 44 39.75V40.5C44 42.1875 42.6406 43.5 41 43.5C39.3125 43.5 38 42.1875 38 40.5V39.75Z" fill="#008444"/>
</svg>
