 <svg
        width="27"
        height="24"
        viewBox="0 0 27 24"
        fill="none"
        xmlns="http://www.w3.org/2000/svg"
      >
        <path
          d="M24 0H3C1.3125 0 0 1.35938 0 3V16.5C0 18.1875 1.3125 19.5 3 19.5H9.9375L9.46875 21.75H7.125C6.46875 21.75 6 22.2656 6 22.875C6 23.5312 6.46875 24 7.125 24H19.875C20.4844 24 21 23.5312 21 22.875C21 22.2656 20.4844 21.75 19.875 21.75H17.4844L17.0156 19.5H24C25.6406 19.5 27 18.1875 27 16.5V3C27 1.35938 25.6406 0 24 0ZM15.1875 21.75H11.7656L12.2344 19.5H14.7188L15.1875 21.75ZM24.75 16.5C24.75 16.9219 24.375 17.25 24 17.25H3C2.57812 17.25 2.25 16.9219 2.25 16.5V14.25H24.75V16.5ZM24.75 12H2.25V3C2.25 2.625 2.57812 2.25 3 2.25H24C24.375 2.25 24.75 2.625 24.75 3V12Z"
          fill="#036666"
        />
      </svg>