<svg
        width="38"
        height="38"
        viewBox="0 0 38 38"
        fill="none"
        xmlns="http://www.w3.org/2000/svg"
      >
        <rect
          x="1"
          y="1"
          width="36"
          height="36"
          rx="10"
          fill="#FAFAFA"
          stroke="#EBF0ED"
        />
        <path
          d="M16.0102 11.0547C16.1781 10.6852 16.5477 10.45 16.9508 10.45H21.0156C21.4187 10.45 21.7883 10.6852 21.9562 11.0547L22.225 11.525H25.45C26.0211 11.525 26.525 12.0289 26.525 12.6C26.525 13.2047 26.0211 13.675 25.45 13.675H12.55C11.9453 13.675 11.475 13.2047 11.475 12.6C11.475 12.0289 11.9453 11.525 12.55 11.525H15.775L16.0102 11.0547ZM24.7109 26.1383C24.6773 27.0117 23.9719 27.65 23.0984 27.65H14.868C13.9945 27.65 13.2891 27.0117 13.2555 26.1383L12.5164 14.75H25.45L24.7109 26.1383Z"
          fill="#6B6B6B"
        />
      </svg>