  <svg
        width="38"
        height="38"
        viewBox="0 0 38 38"
        fill="none"
        xmlns="http://www.w3.org/2000/svg"
      >
        <rect
          x="1"
          y="1"
          width="36"
          height="36"
          rx="10"
          fill="#FAFAFA"
          stroke="#EBF0ED"
        />
        <path
          d="M25.5039 12.3242H25.4688C25.1523 12.0078 24.625 12.0078 24.3086 12.3242L23.2539 13.3438L24.9062 14.9961L25.9258 13.9414C26.2422 13.625 26.2422 13.0977 25.9258 12.7461L25.5039 12.3242ZM17.3477 19.2852C17.2422 19.3555 17.1719 19.4961 17.1367 19.6367L16.5391 21.6758L18.6133 21.1133C18.7539 21.0781 18.8594 21.0078 18.9648 20.9023L23.7109 16.1562L22.0938 14.5391L17.3477 19.2852ZM23.1133 11.1289C24.0977 10.1445 25.6797 10.1445 26.6641 11.1289L27.1211 11.5859C28.1055 12.5703 28.1055 14.1523 27.1211 15.1367L20.1602 22.0977C19.8789 22.3789 19.4922 22.5898 19.0703 22.7305L15.5547 23.7148C15.2734 23.8203 14.957 23.75 14.7461 23.5039C14.5 23.293 14.4297 22.9766 14.5 22.6953L15.5195 19.1797C15.625 18.7578 15.8711 18.3711 16.1523 18.0898L23.1133 11.1289ZM13.0938 12.5H17.0312C17.4883 12.5 17.875 12.8867 17.875 13.3438C17.875 13.8359 17.4883 14.1875 17.0312 14.1875H13.0938C12.2852 14.1875 11.6875 14.8203 11.6875 15.5938V25.1562C11.6875 25.9648 12.2852 26.5625 13.0938 26.5625H22.6562C23.4297 26.5625 24.0625 25.9648 24.0625 25.1562V21.2188C24.0625 20.7617 24.4141 20.375 24.9062 20.375C25.3633 20.375 25.75 20.7617 25.75 21.2188V25.1562C25.75 26.8789 24.3438 28.25 22.6562 28.25H13.0938C11.3711 28.25 10 26.8789 10 25.1562V15.5938C10 13.9062 11.3711 12.5 13.0938 12.5Z"
          fill="#6B6B6B"
        />
      </svg>