 <svg
        width="38"
        height="38"
        viewBox="0 0 55 56"
        fill="none"
        xmlns="http://www.w3.org/2000/svg"
      >
        <path
          d="M13.7539 7.76318C13.7539 4.00342 16.7617 0.888184 20.6289 0.888184H37.8164V14.6382C37.8164 16.5718 39.3203 18.0757 41.2539 18.0757H55.0039V49.0132C55.0039 52.8804 51.8887 55.8882 48.1289 55.8882H20.6289C16.7617 55.8882 13.7539 52.8804 13.7539 49.0132V36.9819H32.4453L28.2559 41.1714C27.1816 42.2456 27.1816 43.8569 28.2559 44.8237C29.2227 45.8979 30.834 45.8979 31.9082 44.8237L40.502 36.23C41.4688 35.2632 41.4688 33.6519 40.502 32.5776L31.9082 23.9839C30.834 23.0171 29.2227 23.0171 28.2559 23.9839C27.1816 25.0581 27.1816 26.6694 28.2559 27.6362L32.4453 31.8257H13.7539V7.76318ZM13.7539 31.8257V36.9819H2.58203C1.07812 36.9819 0.00390625 35.9077 0.00390625 34.4038C0.00390625 33.0073 1.07812 31.8257 2.58203 31.8257H13.7539ZM55.0039 14.6382H41.2539V0.888184L55.0039 14.6382Z"
          fill="#008444"
        />
      </svg>