 <svg
        width="38"
        height="38"
        viewBox="0 0 49 56"
        fill="none"
        xmlns="http://www.w3.org/2000/svg"
      >
        <path
          d="M24.0586 28.3882C19.1172 28.3882 14.6055 25.8101 12.1348 21.5132C9.66406 17.3237 9.66406 12.0601 12.1348 7.76318C14.6055 3.57373 19.1172 0.888184 24.0586 0.888184C28.8926 0.888184 33.4043 3.57373 35.875 7.76318C38.3457 12.0601 38.3457 17.3237 35.875 21.5132C33.4043 25.8101 28.8926 28.3882 24.0586 28.3882ZM19.1172 33.5444H28.8926C39.5273 33.5444 48.1211 42.1382 48.1211 52.7729C48.1211 54.4917 46.6172 55.8882 44.8984 55.8882H3.11133C1.39258 55.8882 -0.00390625 54.4917 -0.00390625 52.7729C-0.00390625 42.1382 8.48242 33.5444 19.1172 33.5444Z"
          fill="#008444"
        />
      </svg>