  <svg
        width="38"
        height="38"
        viewBox="0 0 38 38"
        fill="none"
        xmlns="http://www.w3.org/2000/svg"
      >
        <rect
          x="1"
          y="1"
          width="36"
          height="36"
          rx="10"
          fill="#FAFAFA"
          stroke="#EBF0ED"
        />
        <path
          d="M19.25 23.1875C19.7188 23.2109 20.1172 23.375 20.4453 23.6797C20.75 24.0078 20.9141 24.4062 20.9375 24.875C20.9141 25.3438 20.75 25.7422 20.4453 26.0703C20.1172 26.375 19.7188 26.5391 19.25 26.5625C18.7812 26.5391 18.3828 26.375 18.0547 26.0703C17.75 25.7422 17.5859 25.3438 17.5625 24.875C17.5859 24.4062 17.75 24.0078 18.0547 23.6797C18.3828 23.375 18.7812 23.2109 19.25 23.1875ZM19.25 17.5625C19.7188 17.5859 20.1172 17.75 20.4453 18.0547C20.75 18.3828 20.9141 18.7812 20.9375 19.25C20.9141 19.7188 20.75 20.1172 20.4453 20.4453C20.1172 20.75 19.7188 20.9141 19.25 20.9375C18.7812 20.9141 18.3828 20.75 18.0547 20.4453C17.75 20.1172 17.5859 19.7188 17.5625 19.25C17.5859 18.7812 17.75 18.3828 18.0547 18.0547C18.3828 17.75 18.7812 17.5859 19.25 17.5625ZM19.25 15.3125C18.7812 15.2891 18.3828 15.125 18.0547 14.8203C17.75 14.4922 17.5859 14.0938 17.5625 13.625C17.5859 13.1562 17.75 12.7578 18.0547 12.4297C18.3828 12.125 18.7812 11.9609 19.25 11.9375C19.7188 11.9609 20.1172 12.125 20.4453 12.4297C20.75 12.7578 20.9141 13.1562 20.9375 13.625C20.9141 14.0938 20.75 14.4922 20.4453 14.8203C20.1172 15.125 19.7188 15.2891 19.25 15.3125Z"
          fill="#6B6B6B"
        />
      </svg>